<?xml version="1.0" standalone="no"?>
<!DOCTYPE svg PUBLIC "-//W3C//DTD SVG 20010904//EN"
 "http://www.w3.org/TR/2001/REC-SVG-20010904/DTD/svg10.dtd">
<svg version="1.0" xmlns="http://www.w3.org/2000/svg"
 width="201.000000pt" height="77.000000pt" viewBox="0 0 201.000000 77.000000"
 preserveAspectRatio="xMidYMid meet">

<g transform="translate(0.000000,77.000000) scale(0.100000,-0.100000)"
fill="#41a148" stroke="none">
<path d="M303 609 c-58 -11 -95 -32 -133 -75 -45 -51 -62 -97 -61 -165 0 -72
30 -138 82 -183 46 -39 97 -56 168 -56 218 0 316 281 148 425 -55 47 -133 68
-204 54z m130 -39 c4 0 14 -18 23 -40 12 -30 24 -42 51 -50 39 -14 53 -40 53
-105 0 -35 -5 -47 -27 -63 -19 -14 -28 -31 -32 -62 -6 -40 -10 -46 -55 -69
l-49 -25 -38 21 c-31 17 -46 19 -76 13 -29 -7 -42 -5 -64 10 -45 33 -60 64
-51 107 6 29 3 46 -13 75 l-20 38 26 48 c24 42 30 48 69 53 24 3 48 12 54 20
27 35 55 46 99 38 23 -4 45 -8 50 -9z"/>
<path d="M290 398 l-21 -41 33 -34 34 -34 42 23 c40 22 41 24 35 63 -7 50 -9
51 -60 59 -40 6 -41 5 -63 -36z"/>
<path d="M704 599 c-27 -9 -37 -35 -24 -60 15 -27 75 -26 90 1 21 39 -21 76
-66 59z"/>
<path d="M1100 421 c0 -204 4 -214 69 -209 33 3 36 6 39 37 2 18 -1 38 -7 44
-7 7 -11 67 -11 159 l0 148 -45 0 -45 0 0 -179z"/>
<path d="M1244 586 c-3 -8 -4 -25 -2 -38 2 -18 10 -24 36 -26 42 -4 64 14 60
47 -3 23 -8 26 -46 29 -30 2 -44 -1 -48 -12z"/>
<path d="M1715 496 c-39 -18 -55 -47 -62 -112 -8 -73 16 -135 61 -159 24 -13
48 -17 94 -13 34 2 63 6 66 9 2 2 1 18 -1 36 -5 32 -6 32 -49 26 -45 -6 -74 7
-74 33 0 11 17 14 70 14 l70 0 0 44 c0 67 -18 106 -56 122 -41 17 -80 17 -119
0z m69 -72 c27 -10 20 -44 -9 -44 -18 0 -25 5 -25 18 0 29 9 36 34 26z"/>
<path d="M680 354 c0 -139 -1 -146 -21 -151 -15 -4 -19 -11 -15 -27 3 -11 6
-29 6 -40 0 -17 5 -18 48 -12 26 3 52 14 60 23 8 12 12 66 12 185 l0 168 -45
0 -45 0 0 -146z"/>
<path d="M810 489 c0 -8 34 -166 55 -256 5 -21 11 -23 75 -23 39 0 70 3 70 8
0 10 49 243 56 265 5 16 0 18 -43 15 l-48 -3 -14 -92 c-7 -51 -17 -91 -21 -88
-4 2 -13 45 -19 95 l-13 90 -49 0 c-28 0 -49 -5 -49 -11z"/>
<path d="M1240 355 l0 -145 50 0 50 0 0 145 0 145 -50 0 -50 0 0 -145z"/>
<path d="M1371 483 c0 -10 12 -74 28 -143 l27 -125 71 -3 70 -3 6 33 c3 18 17
84 30 146 l25 112 -47 0 -47 0 -13 -90 c-7 -49 -16 -92 -21 -95 -7 -4 -30 121
-30 165 0 17 -7 20 -50 20 -41 0 -50 -3 -49 -17z"/>
</g>
</svg>
